<?xml version="1.0" encoding="UTF-8" standalone="no"?>
<!-- Created with Inkscape (http://www.inkscape.org/) -->

<svg
   width="1500"
   height="1500.0001"
   viewBox="0 0 396.875 396.87503"
   version="1.1"
   id="svg171"
   sodipodi:docname="data.svg"
   inkscape:version="1.1.1 (3bf5ae0d25, 2021-09-20)"
   xmlns:inkscape="http://www.inkscape.org/namespaces/inkscape"
   xmlns:sodipodi="http://sodipodi.sourceforge.net/DTD/sodipodi-0.dtd"
   xmlns="http://www.w3.org/2000/svg"
   xmlns:svg="http://www.w3.org/2000/svg">
  <sodipodi:namedview
     id="namedview173"
     pagecolor="#ffffff"
     bordercolor="#666666"
     borderopacity="1.0"
     inkscape:pageshadow="2"
     inkscape:pageopacity="0.0"
     inkscape:pagecheckerboard="0"
     inkscape:document-units="px"
     showgrid="false"
     fit-margin-top="0"
     fit-margin-left="0"
     fit-margin-right="0"
     fit-margin-bottom="0"
     units="px"
     inkscape:zoom="0.3901936"
     inkscape:cx="691.96419"
     inkscape:cy="885.45789"
     inkscape:window-width="1920"
     inkscape:window-height="1009"
     inkscape:window-x="-8"
     inkscape:window-y="-8"
     inkscape:window-maximized="1"
     inkscape:current-layer="layer1" />
  <defs
     id="defs168" />
  <g
     inkscape:label="Layer 1"
     inkscape:groupmode="layer"
     id="layer1">
    <path
       id="rect197"
       style="fill:#000000;stroke-width:0.264999"
       d="M 343.9583,0 V 185.20833 H 317.49997 V 0 Z" />
    <rect
       style="fill:#000000;stroke-width:0.264999"
       id="rect197-9"
       width="26.458334"
       height="185.20833"
       x="-211.66663"
       y="0"
       transform="scale(-1,1)" />
    <rect
       style="fill:#000000;stroke-width:0.264999"
       id="rect197-3"
       width="26.458334"
       height="132.29167"
       x="0"
       y="211.66661"
       transform="matrix(0,1,1,0,0,0)" />
    <rect
       style="fill:#000000;stroke-width:0.264999"
       id="rect197-1"
       width="26.458334"
       height="185.20833"
       x="-211.66666"
       y="211.66667"
       transform="scale(-1,1)" />
    <rect
       style="fill:#000000;stroke-width:0.264999"
       id="rect197-9-1"
       width="26.458334"
       height="185.20833"
       x="-79.374969"
       y="211.66666"
       transform="scale(-1,1)" />
    <rect
       style="fill:#000000;stroke-width:0.264999"
       id="rect197-3-1-8"
       width="26.458334"
       height="132.29167"
       x="370.41666"
       y="52.916626"
       transform="matrix(0,1,1,0,0,0)" />
    <rect
       style="fill:#000000;stroke-width:0.264999"
       id="rect197-5"
       width="26.458334"
       height="185.20833"
       x="52.916687"
       y="-3.0517578e-05"
       transform="matrix(0,1,1,0,0,0)" />
    <rect
       style="fill:#000000;stroke-width:0.264999"
       id="rect197-9-3"
       width="26.458334"
       height="185.20833"
       x="185.20834"
       y="-3.0517578e-05"
       transform="matrix(0,1,1,0,0,0)" />
    <rect
       style="fill:#000000;stroke-width:0.264999"
       id="rect197-3-4"
       width="26.458334"
       height="132.29167"
       x="-3.0517578e-05"
       y="-185.20836"
       transform="scale(1,-1)" />
    <rect
       style="fill:#000000;stroke-width:0.264999"
       id="rect197-5-3"
       width="26.458334"
       height="185.20833"
       x="185.20834"
       y="211.66667"
       transform="matrix(0,1,1,0,0,0)" />
    <rect
       style="fill:#000000;stroke-width:0.264999"
       id="rect197-9-3-3"
       width="26.458334"
       height="185.20833"
       x="317.5"
       y="211.66664"
       transform="matrix(0,1,1,0,0,0)" />
    <rect
       style="fill:#000000;stroke-width:0.264999"
       id="rect197-3-1-7-3"
       width="26.458334"
       height="132.29167"
       x="370.41666"
       y="-343.95834"
       transform="scale(1,-1)" />
    <rect
       style="fill:#000000;stroke-width:0.264999"
       id="rect670"
       width="26.458334"
       height="26.458334"
       x="-211.66666"
       y="185.20834"
       transform="scale(-1,1)" />
  </g>
</svg>
